{
    "accessors" : [
        {
            "bufferView" : 0, 
            "componentType" : 5121, 
            "count" : 492, 
            "max" : [
                83
            ], 
            "min" : [
                0
            ], 
            "type" : "SCALAR"
        }, 
        {
            "bufferView" : 1, 
            "componentType" : 5126, 
            "count" : 84, 
            "max" : [
                0.22660280764102936, 
                0.23292064666748047, 
                0.7926534414291382
            ], 
            "min" : [
                -0.2329205423593521, 
                -0.2329205423593521, 
                0.008629610762000084
            ], 
            "type" : "VEC3"
        }, 
        {
            "bufferView" : 2, 
            "componentType" : 5126, 
            "count" : 84, 
            "max" : [
                0.9960936307907104, 
                0.9987792372703552, 
                0.9918820858001709
            ], 
            "min" : [
                -0.9742423892021179, 
                -0.9908444285392761, 
                -0.9462263584136963
            ], 
            "type" : "VEC3"
        }, 
        {
            "bufferView" : 3, 
            "componentType" : 5126, 
            "count" : 84, 
            "max" : [
                1.0, 
                1.0, 
                1.0, 
                1.0
            ], 
            "min" : [
                1.0, 
                1.0, 
                1.0, 
                1.0
            ], 
            "type" : "VEC4"
        }, 
        {
            "bufferView" : 4, 
            "componentType" : 5121, 
            "count" : 288, 
            "max" : [
                65
            ], 
            "min" : [
                0
            ], 
            "type" : "SCALAR"
        }, 
        {
            "bufferView" : 5, 
            "componentType" : 5126, 
            "count" : 66, 
            "max" : [
                0.1821841597557068, 
                0.19744420051574707, 
                1.230494737625122
            ], 
            "min" : [
                -0.19113323092460632, 
                -0.19846458733081818, 
                0.7084113359451294
            ], 
            "type" : "VEC3"
        }, 
        {
            "bufferView" : 6, 
            "componentType" : 5126, 
            "count" : 66, 
            "max" : [
                0.9174474477767944, 
                0.9756767749786377, 
                0.9794915318489075
            ], 
            "min" : [
                -0.9883114099502563, 
                -0.9529404640197754, 
                -0.9622486233711243
            ], 
            "type" : "VEC3"
        }, 
        {
            "bufferView" : 7, 
            "componentType" : 5126, 
            "count" : 66, 
            "max" : [
                0.8693156242370605, 
                0.36062079668045044
            ], 
            "min" : [
                0.4883718490600586, 
                0.10343170166015625
            ], 
            "type" : "VEC2"
        }, 
        {
            "bufferView" : 8, 
            "componentType" : 5123, 
            "count" : 1968, 
            "max" : [
                1311
            ], 
            "min" : [
                0
            ], 
            "type" : "SCALAR"
        }, 
        {
            "bufferView" : 9, 
            "componentType" : 5126, 
            "count" : 1312, 
            "max" : [
                0.2098563313484192, 
                0.10934369266033173, 
                0.8092856407165527
            ], 
            "min" : [
                -0.21584177017211914, 
                -0.07943800836801529, 
                0.07855905592441559
            ], 
            "type" : "VEC3"
        }, 
        {
            "bufferView" : 10, 
            "componentType" : 5126, 
            "count" : 1312, 
            "max" : [
                0.9999412298202515, 
                0.9977567195892334, 
                0.9859340190887451
            ], 
            "min" : [
                -0.9997934103012085, 
                -0.999933123588562, 
                -0.9988143444061279
            ], 
            "type" : "VEC3"
        }, 
        {
            "bufferView" : 11, 
            "componentType" : 5126, 
            "count" : 1312, 
            "max" : [
                0.9995868802070618, 
                0.9998874068260193, 
                0.9999470114707947, 
                1.0
            ], 
            "min" : [
                -0.9988370537757874, 
                -0.9998888373374939, 
                -0.9900490641593933, 
                1.0
            ], 
            "type" : "VEC4"
        }, 
        {
            "bufferView" : 12, 
            "componentType" : 5126, 
            "count" : 1312, 
            "max" : [
                0.9539735317230225, 
                0.9727848190814257
            ], 
            "min" : [
                0.018716372549533844, 
                0.05359947681427002
            ], 
            "type" : "VEC2"
        }, 
        {
            "bufferView" : 13, 
            "componentType" : 5123, 
            "count" : 468, 
            "max" : [
                311
            ], 
            "min" : [
                0
            ], 
            "type" : "SCALAR"
        }, 
        {
            "bufferView" : 14, 
            "componentType" : 5126, 
            "count" : 312, 
            "max" : [
                0.1603427529335022, 
                0.11540807783603668, 
                1.2194775342941284
            ], 
            "min" : [
                -0.1228821873664856, 
                -0.1812729835510254, 
                0.9405726194381714
            ], 
            "type" : "VEC3"
        }, 
        {
            "bufferView" : 15, 
            "componentType" : 5126, 
            "count" : 312, 
            "max" : [
                0.9741044640541077, 
                0.995973527431488, 
                0.9840014576911926
            ], 
            "min" : [
                -0.993966817855835, 
                -0.9896926879882812, 
                -0.9998950362205505
            ], 
            "type" : "VEC3"
        }, 
        {
            "bufferView" : 16, 
            "componentType" : 5123, 
            "count" : 480, 
            "max" : [
                479
            ], 
            "min" : [
                0
            ], 
            "type" : "SCALAR"
        }, 
        {
            "bufferView" : 17, 
            "componentType" : 5126, 
            "count" : 480, 
            "max" : [
                0.09590572118759155, 
                -0.11653326451778412, 
                1.0351383686065674
            ], 
            "min" : [
                -0.01825689896941185, 
                -0.15677835047245026, 
                0.9910792708396912
            ], 
            "type" : "VEC3"
        }, 
        {
            "bufferView" : 18, 
            "componentType" : 5126, 
            "count" : 480, 
            "max" : [
                0.9839993119239807, 
                0.9989288449287415, 
                0.8121519684791565
            ], 
            "min" : [
                -0.9839990139007568, 
                -0.9989288449287415, 
                -0.8121474981307983
            ], 
            "type" : "VEC3"
        }, 
        {
            "bufferView" : 19, 
            "componentType" : 5123, 
            "count" : 3396, 
            "max" : [
                856
            ], 
            "min" : [
                0
            ], 
            "type" : "SCALAR"
        }, 
        {
            "bufferView" : 20, 
            "componentType" : 5126, 
            "count" : 857, 
            "max" : [
                0.18697869777679443, 
                0.10841669887304306, 
                1.197169303894043
            ], 
            "min" : [
                -0.20482474565505981, 
                -0.18270790576934814, 
                -0.00017452769679948688
            ], 
            "type" : "VEC3"
        }, 
        {
            "bufferView" : 21, 
            "componentType" : 5126, 
            "count" : 857, 
            "max" : [
                0.99932861328125, 
                0.9978637099266052, 
                0.999725341796875
            ], 
            "min" : [
                -0.999664306640625, 
                -0.9961851835250854, 
                -0.999908447265625
            ], 
            "type" : "VEC3"
        }, 
        {
            "bufferView" : 22, 
            "componentType" : 5126, 
            "count" : 857, 
            "max" : [
                0.9825538992881775, 
                1.0146591197699308
            ], 
            "min" : [
                0.0, 
                0.023395836353302002
            ], 
            "type" : "VEC2"
        }, 
        {
            "bufferView" : 23, 
            "componentType" : 5126, 
            "count" : 857, 
            "max" : [
                1.0, 
                1.0, 
                1.0, 
                1.0
            ], 
            "min" : [
                1.0, 
                1.0, 
                1.0, 
                1.0
            ], 
            "type" : "VEC4"
        }
    ], 
    "asset" : {
        "generator" : "Khronos Blender glTF 2.0 exporter", 
        "version" : "2.0"
    }, 
    "bufferViews" : [
        {
            "buffer" : 0, 
            "byteLength" : 492, 
            "byteOffset" : 0, 
            "target" : 34963
        }, 
        {
            "buffer" : 0, 
            "byteLength" : 1008, 
            "byteOffset" : 492, 
            "target" : 34962
        }, 
        {
            "buffer" : 0, 
            "byteLength" : 1008, 
            "byteOffset" : 1500, 
            "target" : 34962
        }, 
        {
            "buffer" : 0, 
            "byteLength" : 1344, 
            "byteOffset" : 2508, 
            "target" : 34962
        }, 
        {
            "buffer" : 0, 
            "byteLength" : 288, 
            "byteOffset" : 3852, 
            "target" : 34963
        }, 
        {
            "buffer" : 0, 
            "byteLength" : 792, 
            "byteOffset" : 4140, 
            "target" : 34962
        }, 
        {
            "buffer" : 0, 
            "byteLength" : 792, 
            "byteOffset" : 4932, 
            "target" : 34962
        }, 
        {
            "buffer" : 0, 
            "byteLength" : 528, 
            "byteOffset" : 5724, 
            "target" : 34962
        }, 
        {
            "buffer" : 0, 
            "byteLength" : 3936, 
            "byteOffset" : 6252, 
            "target" : 34963
        }, 
        {
            "buffer" : 0, 
            "byteLength" : 15744, 
            "byteOffset" : 10188, 
            "target" : 34962
        }, 
        {
            "buffer" : 0, 
            "byteLength" : 15744, 
            "byteOffset" : 25932, 
            "target" : 34962
        }, 
        {
            "buffer" : 0, 
            "byteLength" : 20992, 
            "byteOffset" : 41676, 
            "target" : 34962
        }, 
        {
            "buffer" : 0, 
            "byteLength" : 10496, 
            "byteOffset" : 62668, 
            "target" : 34962
        }, 
        {
            "buffer" : 0, 
            "byteLength" : 936, 
            "byteOffset" : 73164, 
            "target" : 34963
        }, 
        {
            "buffer" : 0, 
            "byteLength" : 3744, 
            "byteOffset" : 74100, 
            "target" : 34962
        }, 
        {
            "buffer" : 0, 
            "byteLength" : 3744, 
            "byteOffset" : 77844, 
            "target" : 34962
        }, 
        {
            "buffer" : 0, 
            "byteLength" : 960, 
            "byteOffset" : 81588, 
            "target" : 34963
        }, 
        {
            "buffer" : 0, 
            "byteLength" : 5760, 
            "byteOffset" : 82548, 
            "target" : 34962
        }, 
        {
            "buffer" : 0, 
            "byteLength" : 5760, 
            "byteOffset" : 88308, 
            "target" : 34962
        }, 
        {
            "buffer" : 0, 
            "byteLength" : 6792, 
            "byteOffset" : 94068, 
            "target" : 34963
        }, 
        {
            "buffer" : 0, 
            "byteLength" : 10284, 
            "byteOffset" : 100860, 
            "target" : 34962
        }, 
        {
            "buffer" : 0, 
            "byteLength" : 10284, 
            "byteOffset" : 111144, 
            "target" : 34962
        }, 
        {
            "buffer" : 0, 
            "byteLength" : 6856, 
            "byteOffset" : 121428, 
            "target" : 34962
        }, 
        {
            "buffer" : 0, 
            "byteLength" : 13712, 
            "byteOffset" : 128284, 
            "target" : 34962
        }
    ], 
    "buffers" : [
        {
            "byteLength" : 141996, 
            "uri" : "child.bin"
        }
    ], 
    "materials" : [
        {
            "name" : "black-hair", 
            "pbrMetallicRoughness" : {
                "baseColorFactor" : [
                    0.03393887928037165, 
                    0.03310514737822334, 
                    0.03987575828843948, 
                    1.0
                ], 
                "metallicFactor" : 0.0
            }
        }, 
        {
            "name" : "blond-hair", 
            "pbrMetallicRoughness" : {
                "baseColorFactor" : [
                    0.6400000190734865, 
                    0.4516463823861834, 
                    0.11758155997964082, 
                    1.0
                ], 
                "metallicFactor" : 0.0
            }
        }, 
        {
            "name" : "brown-clothes", 
            "pbrMetallicRoughness" : {
                "baseColorFactor" : [
                    0.18461494720898486, 
                    0.153333547015988, 
                    0.10410225546512386, 
                    1.0
                ], 
                "metallicFactor" : 0.0
            }
        }, 
        {
            "name" : "default_skin", 
            "pbrMetallicRoughness" : {
                "baseColorFactor" : [
                    0.6400000190734865, 
                    0.47175651299590626, 
                    0.39713707561995193, 
                    1.0
                ], 
                "metallicFactor" : 0.0
            }
        }, 
        {
            "name" : "leaf-dress", 
            "pbrMetallicRoughness" : {
                "baseColorFactor" : [
                    0.051795054253862105, 
                    0.18041479856393927, 
                    0.018217033419266837, 
                    1.0
                ], 
                "metallicFactor" : 0.0
            }
        }, 
        {
            "name" : "pupil", 
            "pbrMetallicRoughness" : {
                "baseColorFactor" : [
                    0.0, 
                    0.0, 
                    0.0, 
                    1.0
                ], 
                "metallicFactor" : 0.0
            }
        }
    ], 
    "meshes" : [
        {
            "name" : "leaf_dress", 
            "primitives" : [
                {
                    "attributes" : {
                        "COLOR_0" : 3, 
                        "NORMAL" : 2, 
                        "POSITION" : 1
                    }, 
                    "indices" : 0, 
                    "material" : 4
                }
            ]
        }, 
        {
            "name" : "hair", 
            "primitives" : [
                {
                    "attributes" : {
                        "NORMAL" : 6, 
                        "POSITION" : 5, 
                        "TEXCOORD_0" : 7
                    }, 
                    "indices" : 4, 
                    "material" : 1
                }
            ]
        }, 
        {
            "name" : "boy-clothes", 
            "primitives" : [
                {
                    "attributes" : {
                        "NORMAL" : 10, 
                        "POSITION" : 9, 
                        "TANGENT" : 11, 
                        "TEXCOORD_0" : 12
                    }, 
                    "indices" : 8, 
                    "material" : 2
                }
            ]
        }, 
        {
            "name" : "boy-hair", 
            "primitives" : [
                {
                    "attributes" : {
                        "NORMAL" : 15, 
                        "POSITION" : 14
                    }, 
                    "indices" : 13, 
                    "material" : 0
                }
            ]
        }, 
        {
            "name" : "eyes", 
            "primitives" : [
                {
                    "attributes" : {
                        "NORMAL" : 18, 
                        "POSITION" : 17
                    }, 
                    "indices" : 16, 
                    "material" : 5
                }
            ]
        }, 
        {
            "name" : "child", 
            "primitives" : [
                {
                    "attributes" : {
                        "COLOR_0" : 23, 
                        "NORMAL" : 21, 
                        "POSITION" : 20, 
                        "TEXCOORD_0" : 22
                    }, 
                    "indices" : 19, 
                    "material" : 3
                }
            ]
        }
    ], 
    "nodes" : [
        {
            "mesh" : 2, 
            "name" : "boy-clothes"
        }, 
        {
            "mesh" : 3, 
            "name" : "boy-hair"
        }, 
        {
            "name" : "Camera", 
            "rotation" : [
                0.48170700669288635, 
                0.21292175352573395, 
                0.3342514932155609, 
                0.7816000580787659
            ], 
            "scale" : [
                1.0, 
                0.9999999403953552, 
                1.0
            ], 
            "translation" : [
                7.481131553649902, 
                -6.5076398849487305, 
                5.34366512298584
            ]
        }, 
        {
            "mesh" : 5, 
            "name" : "child"
        }, 
        {
            "mesh" : 4, 
            "name" : "eyes"
        }, 
        {
            "mesh" : 1, 
            "name" : "hair"
        }, 
        {
            "name" : "Lamp", 
            "rotation" : [
                0.16907572746276855, 
                0.27217134833335876, 
                0.7558803558349609, 
                0.570947527885437
            ], 
            "translation" : [
                6.512551784515381, 
                -5.71218204498291, 
                5.903861999511719
            ]
        }, 
        {
            "mesh" : 0, 
            "name" : "leaf_dress"
        }, 
        {
            "children" : [
                0, 
                1, 
                3, 
                4, 
                5, 
                7
            ], 
            "name" : "metarig"
        }
    ], 
    "scene" : 0, 
    "scenes" : [
        {
            "name" : "Scene", 
            "nodes" : [
                8, 
                6, 
                2
            ]
        }
    ]
}
