{
    "accessors" : [
        {
            "bufferView" : 0, 
            "componentType" : 5121, 
            "count" : 276, 
            "max" : [
                175
            ], 
            "min" : [
                0
            ], 
            "type" : "SCALAR"
        }, 
        {
            "bufferView" : 1, 
            "componentType" : 5126, 
            "count" : 176, 
            "max" : [
                0.928514838218689, 
                0.18096472322940826, 
                0.7463876605033875
            ], 
            "min" : [
                -0.03330594301223755, 
                -0.18096305429935455, 
                -0.0884307250380516
            ], 
            "type" : "VEC3"
        }, 
        {
            "bufferView" : 2, 
            "componentType" : 5126, 
            "count" : 176, 
            "max" : [
                0.8507195115089417, 
                0.9220850467681885, 
                1.0
            ], 
            "min" : [
                -0.9997682571411133, 
                -0.9220853447914124, 
                -0.920016884803772
            ], 
            "type" : "VEC3"
        }, 
        {
            "bufferView" : 3, 
            "componentType" : 5121, 
            "count" : 276, 
            "max" : [
                47
            ], 
            "min" : [
                0
            ], 
            "type" : "SCALAR"
        }, 
        {
            "bufferView" : 4, 
            "componentType" : 5126, 
            "count" : 48, 
            "max" : [
                1.0269845724105835, 
                0.27943453192710876, 
                1.835259199142456
            ], 
            "min" : [
                0.4681171476840973, 
                -0.27943283319473267, 
                0.5347869396209717
            ], 
            "type" : "VEC3"
        }, 
        {
            "bufferView" : 5, 
            "componentType" : 5126, 
            "count" : 48, 
            "max" : [
                0.9664601683616638, 
                0.9664601683616638, 
                0.6302377581596375
            ], 
            "min" : [
                -0.9664601683616638, 
                -0.9664601683616638, 
                -0.7017731070518494
            ], 
            "type" : "VEC3"
        }
    ], 
    "asset" : {
        "generator" : "Khronos Blender glTF 2.0 exporter", 
        "version" : "2.0"
    }, 
    "bufferViews" : [
        {
            "buffer" : 0, 
            "byteLength" : 276, 
            "byteOffset" : 0, 
            "target" : 34963
        }, 
        {
            "buffer" : 0, 
            "byteLength" : 2112, 
            "byteOffset" : 276, 
            "target" : 34962
        }, 
        {
            "buffer" : 0, 
            "byteLength" : 2112, 
            "byteOffset" : 2388, 
            "target" : 34962
        }, 
        {
            "buffer" : 0, 
            "byteLength" : 276, 
            "byteOffset" : 4500, 
            "target" : 34963
        }, 
        {
            "buffer" : 0, 
            "byteLength" : 576, 
            "byteOffset" : 4776, 
            "target" : 34962
        }, 
        {
            "buffer" : 0, 
            "byteLength" : 576, 
            "byteOffset" : 5352, 
            "target" : 34962
        }
    ], 
    "buffers" : [
        {
            "byteLength" : 5928, 
            "uri" : "lamp.bin"
        }
    ], 
    "materials" : [
        {
            "name" : "lamp-base", 
            "pbrMetallicRoughness" : {
                "baseColorFactor" : [
                    0.066825080913679, 
                    0.03959196268904153, 
                    0.03532343261425841, 
                    1.0
                ], 
                "metallicFactor" : 0.0
            }
        }, 
        {
            "emissiveFactor" : [
                0.4000000059604645, 
                0.398501455783844, 
                0.3067047595977783
            ], 
            "name" : "lamp-glass", 
            "pbrMetallicRoughness" : {
                "baseColorFactor" : [
                    0.800000011920929, 
                    0.797002911567688, 
                    0.6134095191955566, 
                    1.0
                ], 
                "metallicFactor" : 0.0
            }
        }
    ], 
    "meshes" : [
        {
            "name" : "lamp-base", 
            "primitives" : [
                {
                    "attributes" : {
                        "NORMAL" : 2, 
                        "POSITION" : 1
                    }, 
                    "indices" : 0, 
                    "material" : 0
                }
            ]
        }, 
        {
            "name" : "lamp-glass", 
            "primitives" : [
                {
                    "attributes" : {
                        "NORMAL" : 5, 
                        "POSITION" : 4
                    }, 
                    "indices" : 3, 
                    "material" : 1
                }
            ]
        }
    ], 
    "nodes" : [
        {
            "name" : "Camera", 
            "rotation" : [
                0.48170700669288635, 
                0.21292175352573395, 
                0.3342514932155609, 
                0.7816000580787659
            ], 
            "scale" : [
                1.0, 
                0.9999999403953552, 
                1.0
            ], 
            "translation" : [
                7.481131553649902, 
                -6.5076398849487305, 
                5.34366512298584
            ]
        }, 
        {
            "name" : "Lamp", 
            "rotation" : [
                0.16907572746276855, 
                0.27217134833335876, 
                0.7558803558349609, 
                0.570947527885437
            ], 
            "translation" : [
                6.512551784515381, 
                -5.71218204498291, 
                5.903861999511719
            ]
        }, 
        {
            "mesh" : 0, 
            "name" : "lamp-base"
        }, 
        {
            "mesh" : 1, 
            "name" : "lamp-glass"
        }
    ], 
    "scene" : 0, 
    "scenes" : [
        {
            "name" : "Scene", 
            "nodes" : [
                3, 
                2, 
                1, 
                0
            ]
        }
    ]
}
